<?xml version="1.0" standalone="no"?>
<!DOCTYPE svg PUBLIC "-//W3C//DTD SVG 20010904//EN"
 "http://www.w3.org/TR/2001/REC-SVG-20010904/DTD/svg10.dtd">
<svg version="1.0" xmlns="http://www.w3.org/2000/svg"
 width="300.000000pt" height="133.000000pt" viewBox="0 0 300.000000 133.000000"
 preserveAspectRatio="xMidYMid meet">
<metadata>
Created by potrace 1.10, written by Peter Selinger 2001-2011
</metadata>
<g transform="translate(0.000000,133.000000) scale(0.100000,-0.100000)"
fill="#000000" stroke="none">
<path d="M537 1190 c-34 -40 -39 -81 -13 -107 9 -10 16 -10 34 3 17 12 22 25
21 57 0 23 -4 50 -8 61 -6 17 -10 15 -34 -14z"/>
<path d="M420 1164 c-16 -40 -4 -91 25 -110 69 -45 74 59 6 120 -20 18 -21 18
-31 -10z"/>
<path d="M651 1155 c-37 -42 -41 -90 -12 -126 16 -20 23 -22 38 -13 35 21 47
62 34 120 -7 30 -16 54 -21 54 -4 0 -22 -16 -39 -35z"/>
<path d="M335 1130 c-18 -35 -14 -59 15 -85 19 -17 20 -17 28 5 9 25 -6 110
-19 110 -5 0 -16 -14 -24 -30z"/>
<path d="M790 1102 c-35 -35 -43 -70 -11 -50 22 13 56 67 47 75 -3 3 -19 -8
-36 -25z"/>
<path d="M250 1072 c0 -57 50 -109 66 -68 7 18 -17 65 -45 90 l-21 19 0 -41z"/>
<path d="M850 1049 c-37 -10 -80 -50 -80 -75 0 -8 8 -22 19 -33 37 -37 102 2
136 82 l15 37 -27 -1 c-16 0 -44 -5 -63 -10z m10 -59 c-14 -10 -33 -21 -43
-24 -16 -4 -15 -1 5 19 13 12 32 23 43 24 18 0 18 -1 -5 -19z"/>
<path d="M571 1018 c-19 -54 -14 -114 12 -144 27 -31 43 -26 62 19 16 39 6 77
-34 122 l-29 34 -11 -31z"/>
<path d="M410 1000 c0 -41 22 -83 53 -99 74 -39 53 69 -22 112 l-31 18 0 -31z"/>
<path d="M185 973 c10 -56 31 -89 64 -103 68 -28 71 34 6 97 -58 55 -80 57
-70 6z"/>
<path d="M1197 863 l2 -118 76 -3 c70 -3 75 -1 75 18 0 18 -6 20 -60 20 l-60
0 0 36 0 36 50 -4 c42 -2 50 0 50 15 0 14 -9 17 -50 17 l-50 0 0 35 0 35 60 0
c47 0 60 3 60 15 0 12 -15 15 -77 15 l-78 0 2 -117z"/>
<path d="M1690 965 c0 -10 11 -15 35 -15 l35 0 0 -105 c0 -87 3 -105 15 -105
12 0 15 18 15 105 l0 105 35 0 c24 0 35 5 35 15 0 12 -16 15 -85 15 -69 0 -85
-3 -85 -15z"/>
<path d="M2190 965 c0 -8 9 -15 20 -15 11 0 20 7 20 15 0 8 -9 15 -20 15 -11
0 -20 -7 -20 -15z"/>
<path d="M338 940 c-7 -49 8 -95 38 -115 24 -15 28 -15 41 -2 22 22 9 61 -36
110 l-38 41 -5 -34z"/>
<path d="M114 937 c-8 -22 -1 -30 21 -25 14 3 14 5 1 23 -14 19 -15 19 -22 2z"/>
<path d="M913 913 c-46 -16 -93 -63 -93 -93 0 -22 26 -50 46 -50 26 0 72 55
84 99 6 23 10 46 8 50 -2 5 -22 2 -45 -6z"/>
<path d="M713 888 c-35 -37 -48 -75 -39 -113 14 -56 96 -9 96 55 0 38 -11 90
-19 90 -4 0 -21 -15 -38 -32z"/>
<path d="M1421 907 c-47 -23 -50 -124 -5 -154 39 -25 125 0 96 29 -7 7 -17 6
-31 -1 -37 -20 -63 2 -59 52 l3 42 44 0 c51 0 63 16 26 33 -32 15 -44 15 -74
-1z"/>
<path d="M1575 895 c-56 -55 -14 -165 58 -151 42 8 57 30 57 85 0 52 -6 63
-37 80 -33 17 -51 14 -78 -14z m69 -21 c9 -8 16 -28 16 -44 0 -26 -22 -60 -38
-60 -36 1 -50 72 -21 101 23 23 24 23 43 3z"/>
<path d="M1870 845 c0 -69 2 -76 25 -91 21 -14 31 -15 50 -6 15 7 25 8 25 2 0
-6 7 -10 15 -10 12 0 15 17 15 90 0 73 -3 90 -15 90 -12 0 -15 -14 -15 -64 0
-73 -14 -95 -49 -76 -18 9 -21 20 -21 75 0 51 -3 65 -15 65 -12 0 -15 -15 -15
-75z"/>
<path d="M2057 913 c-4 -3 -7 -44 -7 -90 0 -76 2 -83 20 -83 18 0 20 7 20 71
l0 71 31 -4 c22 -3 33 0 40 13 12 22 -21 35 -50 20 -13 -7 -22 -8 -26 -1 -7
12 -19 13 -28 3z"/>
<path d="M2199 918 c0 -2 -1 -41 -2 -88 -1 -73 1 -85 16 -88 15 -3 17 7 17 87
0 74 -3 91 -15 91 -8 0 -15 -1 -16 -2z"/>
<path d="M2303 910 c-48 -20 -36 -90 17 -90 38 0 60 -9 60 -26 0 -19 -44 -28
-70 -14 -16 9 -25 9 -33 1 -16 -16 2 -31 46 -38 46 -7 87 17 87 51 0 30 -19
45 -64 53 -43 7 -51 16 -31 33 11 9 22 9 44 2 23 -8 32 -7 41 3 8 10 4 15 -21
24 -37 13 -46 13 -76 1z"/>
<path d="M2450 829 c0 -81 2 -90 18 -87 14 3 16 12 14 59 -4 66 15 97 49 79
16 -9 19 -22 19 -76 0 -57 2 -65 18 -62 14 3 18 16 20 71 3 68 3 68 30 65 26
-3 27 -5 30 -70 3 -60 5 -68 22 -68 18 0 20 7 20 60 0 32 -5 71 -12 85 -15 33
-53 43 -78 20 -19 -17 -21 -17 -38 -2 -22 20 -43 22 -61 5 -11 -10 -14 -10
-18 0 -3 6 -11 12 -19 12 -11 0 -14 -19 -14 -91z"/>
<path d="M2756 897 c-52 -53 -20 -157 49 -157 41 0 65 33 65 88 0 58 -14 80
-57 88 -26 5 -37 1 -57 -19z m68 -23 c24 -23 21 -81 -5 -94 -29 -16 -49 4 -49
51 0 32 14 55 37 59 1 0 9 -7 17 -16z"/>
<path d="M122 832 c42 -57 75 -78 111 -68 32 8 34 24 7 59 -20 25 -53 40 -118
51 l-34 6 34 -48z"/>
<path d="M996 851 c-24 -26 -18 -67 9 -63 32 6 48 27 41 56 -8 31 -26 33 -50
7z"/>
<path d="M462 809 c-26 -54 -27 -77 -6 -107 47 -67 85 26 46 113 l-18 39 -22
-45z"/>
<path d="M316 798 c7 -26 33 -58 46 -58 15 0 9 27 -13 54 -25 32 -43 34 -33 4z"/>
<path d="M255 731 c143 -36 212 -83 264 -180 44 -83 51 -151 22 -217 -26 -59
-52 -88 -94 -105 l-31 -13 24 -7 c34 -10 160 -11 161 -1 0 4 5 43 10 87 5 44
11 106 14 137 6 70 28 136 68 207 17 30 25 51 19 47 -20 -12 -74 -97 -92 -144
l-17 -44 -26 45 c-55 93 -175 176 -286 197 -87 16 -112 10 -36 -9z"/>
<path d="M756 729 c-35 -27 -36 -69 -2 -69 33 0 56 25 56 61 0 35 -17 37 -54
8z"/>
<path d="M906 734 c-9 -8 -16 -22 -16 -29 0 -20 49 -55 77 -55 25 0 89 26 98
39 2 4 -15 19 -38 34 -46 30 -98 35 -121 11z"/>
<path d="M556 724 c-12 -32 -6 -81 14 -102 27 -29 48 -28 56 2 7 30 -1 56 -27
90 -24 30 -34 32 -43 10z"/>
<path d="M110 713 c-8 -3 -25 -14 -37 -23 l-23 -18 25 -16 c52 -34 125 -25
133 17 8 38 -46 60 -98 40z"/>
<path d="M261 638 c-46 -23 -46 -29 3 -52 68 -32 140 -12 106 29 -25 30 15 16
57 -20 53 -45 66 -80 61 -156 -4 -54 -8 -64 -45 -101 -25 -25 -61 -47 -93 -58
l-53 -18 30 -15 c27 -14 33 -14 69 2 111 51 154 177 99 288 -27 54 -85 103
-122 103 -12 0 -33 4 -46 9 -19 7 -35 5 -66 -11z"/>
<path d="M872 640 c7 -11 24 -20 37 -20 23 0 24 1 6 20 -10 11 -26 20 -37 20
-16 0 -16 -3 -6 -20z"/>
<path d="M763 609 c-39 -11 -60 -43 -42 -65 24 -29 102 -11 142 34 19 20 18
21 -20 31 -21 6 -40 11 -43 10 -3 0 -20 -5 -37 -10z"/>
<path d="M990 579 c10 -33 27 -59 40 -59 4 0 10 12 13 27 3 19 -1 31 -17 44
-33 29 -46 24 -36 -12z"/>
<path d="M157 579 c-16 -9 -47 -65 -47 -84 0 -3 14 -5 30 -5 39 0 72 33 68 68
-3 30 -23 38 -51 21z"/>
<path d="M910 552 c0 -46 29 -86 58 -80 27 6 16 49 -23 88 l-35 35 0 -43z"/>
<path d="M1144 580 c-37 -15 -54 -50 -54 -112 0 -71 14 -103 51 -119 46 -19
109 16 109 60 0 19 -29 12 -40 -9 -14 -27 -65 -27 -80 -1 -5 11 -10 41 -10 66
0 25 5 55 10 66 15 26 66 26 80 -1 12 -22 40 -27 40 -7 0 15 -36 57 -50 57 -4
0 -14 2 -22 4 -7 3 -23 1 -34 -4z"/>
<path d="M2590 565 c0 -8 9 -15 20 -15 11 0 20 7 20 15 0 8 -9 15 -20 15 -11
0 -20 -7 -20 -15z"/>
<path d="M2490 545 c0 -14 -4 -25 -10 -25 -5 0 -10 -9 -10 -21 0 -11 5 -17 10
-14 6 4 10 -18 10 -59 0 -54 3 -67 19 -76 29 -15 41 -12 41 10 0 11 -7 20 -15
20 -12 0 -15 13 -15 55 0 44 3 53 15 49 11 -4 15 0 15 16 0 16 -4 20 -15 16
-11 -4 -15 2 -15 24 0 20 -5 30 -15 30 -9 0 -15 -9 -15 -25z"/>
<path d="M248 529 c-20 -11 -24 -34 -8 -44 15 -9 40 14 40 36 0 21 -7 23 -32
8z"/>
<path d="M392 515 c-21 -26 -38 -92 -27 -103 11 -11 60 23 73 50 14 31 6 78
-13 78 -8 0 -22 -11 -33 -25z"/>
<path d="M1316 499 c-36 -29 -37 -99 -1 -134 30 -30 54 -31 89 -4 21 17 26 29
26 67 0 53 -5 64 -37 81 -31 16 -47 14 -77 -10z m68 -25 c16 -16 21 -50 10
-78 -8 -21 -60 -21 -68 0 -15 39 5 94 34 94 5 0 16 -7 24 -16z"/>
<path d="M1495 495 c-19 -18 -25 -35 -25 -65 0 -30 6 -47 25 -65 30 -30 54
-31 89 -4 22 17 26 28 26 70 0 83 -62 118 -115 64z m69 -21 c31 -30 17 -94
-20 -94 -40 0 -59 63 -28 94 8 9 19 16 24 16 5 0 16 -7 24 -16z"/>
<path d="M1660 430 c0 -73 3 -90 15 -90 12 0 15 14 15 64 0 68 6 78 48 80 14
1 27 7 30 13 6 19 -26 27 -54 15 -15 -7 -24 -8 -24 -2 0 6 -7 10 -15 10 -12 0
-15 -17 -15 -90z"/>
<path d="M1800 400 c0 -114 1 -120 20 -120 18 0 20 4 14 40 -7 43 -4 46 25 28
28 -17 68 12 77 56 14 76 -38 141 -83 105 -13 -11 -17 -11 -20 -1 -3 6 -11 12
-19 12 -11 0 -14 -23 -14 -120z m88 78 c25 -25 10 -108 -19 -108 -16 0 -39 33
-39 56 0 52 31 79 58 52z"/>
<path d="M2002 504 c-18 -12 -22 -25 -22 -68 0 -61 13 -83 55 -92 51 -10 80
22 80 86 0 42 -4 55 -24 71 -28 23 -59 24 -89 3z m66 -26 c7 -7 12 -29 12 -50
0 -42 -23 -63 -52 -47 -25 13 -25 84 0 98 22 13 26 13 40 -1z"/>
<path d="M2164 507 c-3 -8 -4 -47 -2 -88 2 -61 6 -74 21 -77 15 -3 17 5 17 66
0 74 8 86 48 76 12 -4 22 0 25 10 8 21 -37 33 -58 16 -10 -9 -15 -9 -15 -1 0
16 -30 14 -36 -2z"/>
<path d="M2324 505 c-21 -16 -17 -18 36 -19 28 -1 36 -5 38 -22 3 -18 -1 -21
-20 -17 -13 2 -35 0 -51 -6 -21 -8 -27 -17 -27 -41 0 -40 32 -60 89 -55 l44 3
-2 68 c-1 56 -6 72 -23 87 -25 21 -58 22 -84 2z m74 -107 c-3 -25 -43 -37 -60
-20 -19 19 0 42 32 42 27 0 31 -3 28 -22z"/>
<path d="M2590 429 c0 -81 2 -90 18 -87 14 3 17 17 20 91 3 82 2 87 -18 87
-19 0 -20 -6 -20 -91z"/>
<path d="M2660 514 c0 -23 65 -174 74 -171 13 4 79 167 72 174 -15 15 -37 -12
-52 -62 -8 -31 -18 -55 -20 -52 -2 2 -12 28 -23 58 -10 32 -25 55 -34 57 -10
2 -17 0 -17 -4z"/>
<path d="M2859 501 c-18 -15 -23 -28 -23 -70 0 -63 19 -85 70 -85 47 0 64 23
64 90 0 43 -4 56 -22 68 -30 21 -61 20 -89 -3z m69 -23 c19 -19 15 -85 -5 -97
-30 -16 -53 5 -53 47 0 38 14 62 35 62 6 0 16 -5 23 -12z"/>
<path d="M307 474 c-32 -33 -66 -99 -55 -109 2 -3 20 4 38 14 28 15 38 28 51
75 9 31 14 56 10 56 -4 0 -24 -16 -44 -36z"/>
<path d="M800 495 c0 -2 10 -20 21 -40 18 -29 19 -39 9 -48 -10 -9 -11 -9 -6
0 4 8 -9 24 -35 43 -23 16 -43 29 -45 28 -7 -9 13 -122 21 -118 11 5 11 15 0
45 -5 14 0 12 17 -9 21 -25 29 -28 60 -22 31 6 35 10 31 29 -4 20 -3 20 9 5 8
-9 27 -20 44 -24 l29 -7 -34 39 c-19 21 -42 45 -52 51 -20 15 -69 35 -69 28z"/>
<path d="M188 439 c-33 -32 -36 -49 -9 -49 24 0 67 34 73 58 8 28 -32 23 -64
-9z"/>
<path d="M635 332 c3 -24 13 -60 23 -80 15 -31 22 -37 45 -34 16 2 40 8 55 14
l27 11 -33 7 c-39 9 -88 52 -109 95 l-14 30 6 -43z"/>
<path d="M880 363 c0 -17 19 -35 29 -29 18 12 12 36 -9 36 -11 0 -20 -3 -20
-7z"/>
</g>
</svg>
